# xmcd
#
# Track frame offsets:
#	182
#	16677
#	32205
#	42195
#	56622
#	73012
#	85455
#	97347
#	110372
#	129877
#	145095
#	162765
#	174820
#	191777
#
# Disc length: 2912
#
# Revision: 1
# Processed by: cddbd v1.5.1PL0 Copyright (c) Steve Scherf et al.
# Submitted via: audiograbber 1.81.00
# Normalized: r0:DSETVAR1
#
DISCID=b70b5e0e
DTITLE=Various Artist - sweet america [CD 2)
DYEAR=1992
DGENRE=Country
TTITLE0=kenny rogers - lucille
TTITLE1=wayne newton - dady don't you walk
TTITLE2=the buoys - bloodknot
TTITLE3=michael nesmith - joanne
TTITLE4=anne murray - you needed me
TTITLE5=jim croce - one less set of footsteps
TTITLE6=thom pace - maybe
TTITLE7=bobby gentry - i'll never fall in love again
TTITLE8=lou christie - blue canadian rocky dream
TTITLE9=stampeders - sweet city woman
TTITLE10=marshall tucker band - fire on a moutain
TTITLE11=frankie laine - answer me
TTITLE12=nancy boyd and demis roussos - summerwine
TTITLE13=steve rowland and the falily dogg - sweet america
EXTD=
EXTT0=
EXTT1=
EXTT2=
EXTT3=
EXTT4=
EXTT5=
EXTT6=
EXTT7=
EXTT8=
EXTT9=
EXTT10=
EXTT11=
EXTT12=
EXTT13=
PLAYORDER=
